<?xml version="1.0" encoding="UTF-8"?>
<svg width="135px" height="130px" viewBox="0 0 135 130" version="1.1" xmlns="http://www.w3.org/2000/svg" xmlns:xlink="http://www.w3.org/1999/xlink">
    <title>Logo</title>
    <defs>
        <polygon id="path-1" points="4.88498131e-15 0 134.275652 0 134.275652 129.232 4.88498131e-15 129.232"></polygon>
    </defs>
    <g id="Page-1" stroke="none" stroke-width="1" fill="none" fill-rule="evenodd">
        <g id="Desktop-HD" transform="translate(-98.000000, -64.000000)">
            <g id="Logo" transform="translate(98.000000, 64.000000)">
                <path d="M85.6014838,58.0523 C91.7314838,54.6953 95.0574838,51.2743 95.5784838,47.7863 C95.8404838,46.0703 95.2854838,44.7023 93.9184838,43.6813 C91.1824838,41.7463 87.6964838,41.9713 83.4544838,44.3573 C81.6194838,45.3283 79.9274838,46.5583 78.3774838,48.0523 C76.8274838,49.5453 75.6494838,51.0263 74.8464838,52.4943 C74.6354838,54.1563 74.4904838,55.3893 74.4114838,56.1923 L73.5384838,63.4263 L77.2464838,61.8583 C80.6154838,60.5173 83.4014838,59.2473 85.6014838,58.0523" id="Fill-1" fill="#0B0E1C"></path>
                <path d="M49.4305838,86.119 C51.3235838,85.71 52.9815838,84.998 54.4025838,83.981 C55.7695838,82.971 56.7925838,81.744 57.4695838,80.302 C58.1455838,78.861 58.3195838,77.074 57.9925838,74.944 C57.6655838,72.815 56.7115838,70.548 55.1325838,68.142 C54.8255838,67.651 54.3265838,67.046 53.6335838,66.329 C50.4705838,67.142 47.5635838,68.166 44.9105838,69.399 C43.2645838,70.228 41.5215838,71.286 39.6825838,72.575 C37.8435838,73.865 36.2135838,75.063 35.3095838,76.532 C34.3985838,78.012 34.0915838,78.955 34.1955838,80.162 C34.2975838,81.35 34.8075838,82.449 36.5105838,83.604 C38.5395838,84.979 40.8165838,85.705 43.1255838,86.116 C45.4355838,86.527 47.5365838,86.528 49.4305838,86.119" id="Fill-3" fill="#0B0E1C"></path>
                <g id="Group-7">
                    <mask id="mask-2" fill="white">
                        <use xlink:href="#path-1"></use>
                    </mask>
                    <g id="Clip-6"></g>
                    <path d="M130.480384,78.9876 C126.060384,92.9946 116.630384,104.4976 106.166384,111.8876 C97.9753838,117.6726 88.8563838,121.2246 79.6943838,122.2246 C80.6813838,122.0086 81.6613838,121.7766 82.6283838,121.5276 C87.3373838,120.3196 91.9053838,118.5726 96.2273838,116.3486 C104.826384,111.9246 112.464384,105.6016 118.276384,97.8616 C119.288384,96.5136 120.245384,95.1226 121.143384,93.6966 C124.303384,88.6796 126.744384,83.2196 128.417384,77.5326 C129.629384,73.4166 130.438384,69.1806 130.827384,64.9086 C131.290384,59.8226 131.156384,54.6796 130.393384,49.6296 C130.221384,48.4946 129.924384,47.6706 129.486384,46.6426 C128.515384,44.3676 128.049384,41.8306 127.126384,39.5146 C126.080384,36.8896 124.849384,34.3386 123.453384,31.8826 C123.085384,31.2376 122.707384,30.5986 122.317384,29.9666 C123.675384,31.8546 124.930384,33.8606 126.067384,35.9816 C129.331384,42.0756 131.661384,49.1146 132.566384,56.5106 C133.482384,64.0056 132.785384,71.6826 130.480384,78.9876 M51.7083838,125.4596 C46.5963838,124.2126 41.6433838,122.0646 37.0803838,119.0846 C38.1993838,119.5116 39.3273838,119.9136 40.4653838,120.2866 C48.5263838,122.9306 57.0393838,124.2156 65.5223838,123.9926 C70.2803838,124.9256 75.1653838,125.1056 80.0413838,124.5746 C70.6273838,127.2026 60.9483838,127.7136 51.7083838,125.4596 M29.9623838,80.8516 C29.7613838,78.6846 30.1333838,76.1776 32.0093838,73.8696 C33.3723838,72.2346 35.0933838,70.6706 37.1753838,69.1756 C39.2563838,67.6836 41.2493838,66.5096 43.1553838,65.6566 C45.2533838,64.6306 47.5213838,63.7446 49.9583838,62.9986 L45.8883838,59.6266 C43.2913838,57.5246 41.4783838,55.9746 40.4463838,54.9766 C38.5093838,53.2306 37.0943838,50.9966 36.8043838,49.2366 C36.5063838,47.4316 36.6833838,45.9036 37.8493838,43.8166 C39.0133838,41.7316 40.7093838,40.0136 42.9343838,38.6626 C44.9033838,37.3876 47.0663838,36.4856 49.4193838,35.9556 C51.7763838,35.4786 53.9713838,35.5096 56.0063838,36.0506 C60.0183838,37.0856 63.1543838,38.8256 65.4173838,41.2716 C65.8213838,41.7026 66.0133838,42.2186 65.9903838,42.8186 C65.9683838,43.4196 65.7513838,43.9086 65.3423838,44.2846 C64.9333838,44.6616 64.4273838,44.8366 63.8253838,44.8146 C63.2223838,44.7916 62.7473838,44.5896 62.3983838,44.2046 C60.6593838,42.3356 58.1823838,40.9516 54.9663838,40.0506 C53.6813838,39.7006 52.1153838,39.7156 50.2713838,40.0936 C48.4263838,40.4726 46.7163838,41.1766 45.1403838,42.2066 C41.7353838,44.3436 40.5853838,46.0686 41.0863838,48.6336 C41.1713838,48.9906 41.9803838,50.6716 43.2943838,51.9026 C44.3223838,52.8496 46.0513838,54.3296 48.4823838,56.3416 C52.2143838,59.4326 54.3643838,61.2396 54.9353838,61.7586 C57.3383838,61.2246 59.8093838,60.8396 62.3463838,60.6056 C62.9163838,60.5526 63.4263838,60.7146 63.8793838,61.0886 C64.3313838,61.4636 64.5843838,61.9346 64.6363838,62.5026 C64.6893838,63.0706 64.5263838,63.5796 64.1513838,64.0306 C63.7743838,64.4826 63.3023838,64.7336 62.7323838,64.7856 C61.2823838,64.9196 59.8123838,65.1086 58.3203838,65.3496 L58.6743838,65.7856 C61.5023838,70.4176 62.7103838,74.5866 62.2963838,78.2946 C61.8813838,82.0026 60.0843838,85.0186 56.9053838,87.3416 C54.1263838,89.4726 50.6233838,90.5496 46.3963838,90.5770126 C42.1693838,90.6016 38.1513838,89.4906 34.3403838,87.2396 C31.3023838,85.4386 30.1533838,83.4886 29.9623838,80.8516 M68.8913838,65.6646 L70.0723838,55.6986 C70.2013838,54.7876 70.3693838,53.4756 70.5793838,51.7596 C70.5753838,51.6536 70.5973838,51.5186 70.6453838,51.3576 C71.4033838,45.4086 71.3063838,36.3726 71.2013838,33.2796 C71.1813838,32.6936 71.3763838,32.1816 71.7883838,31.7396 C72.1993838,31.2986 72.6993838,31.0676 73.2853838,31.0476 C73.8723838,31.0276 74.3853838,31.2246 74.8273838,31.6356 C75.2673838,32.0486 75.4983838,32.5466 75.5183838,33.1336 C75.5903838,35.2656 75.9593838,42.1046 75.7793838,44.6186 C77.4833838,42.9596 79.3303838,41.5896 81.3223838,40.5076 C82.9463838,39.6516 84.5663838,39.0096 86.1793838,38.5806 C87.7913838,38.1536 89.5233838,38.0406 91.3713838,38.2446 C93.2193838,38.4496 94.8823838,39.1126 96.3613838,40.2356 C97.7253838,41.1496 98.7153838,42.3436 99.3253838,43.8166 C99.9363838,45.2906 100.134384,46.8306 99.9233838,48.4396 C99.1823838,53.3746 95.1203838,57.8356 87.7313838,61.8216 C86.6293838,62.3936 85.4493838,62.9676 84.1883838,63.5436 C89.2783838,64.1706 93.3003838,65.5016 96.2503838,67.5356 C98.6003838,69.1636 100.178384,71.2316 100.985384,73.7376 C101.790384,76.2456 101.768384,78.7416 100.919384,81.2246 C100.070384,83.7076 98.4983838,85.7626 96.2063838,87.3876 C94.4313838,88.5696 92.1533838,89.4216 89.3693838,89.9426 C86.5853838,90.4636 83.7223838,90.6406 80.7823838,90.4746 C75.9153838,90.1606 72.0863838,88.9836 69.2953838,86.9436 L68.7293838,89.1246 C68.5893838,89.7166 68.2563838,90.1546 67.7333838,90.4386 C67.2093838,90.7236 66.6513838,90.7956 66.0593838,90.6566 C65.4673838,90.5166 65.0293838,90.1846 64.7453838,89.6606 C64.4593838,89.1366 64.3883838,88.5796 64.5283838,87.9866 C66.0913838,82.1706 67.4333838,75.3736 68.5563838,67.5976 C68.3193838,66.9126 68.4313838,66.2686 68.8913838,65.6646 M131.124384,44.4666 C127.219384,32.5086 120.138384,22.8866 111.252384,16.5516 C107.578384,13.1696 103.507384,10.2216 99.1283838,7.8176 C84.0973838,-0.4314 65.7063838,-2.2094 49.2953838,2.7546 C46.4903838,3.6026 43.7393838,4.6396 41.0893838,5.8956 C39.8763838,6.4706 38.7333838,7.1486 37.5793838,7.8036 C34.9143838,9.3136 32.0863838,10.4616 29.4803838,12.1176 C26.9633838,13.7166 24.5693838,15.5106 22.3243838,17.4736 C17.2733838,21.8936 12.9683838,27.1446 9.53138381,32.9056 C6.11938381,38.6226 3.55238381,44.8426 1.94438381,51.3026 C0.339383814,57.7496 -0.305616186,64.4406 0.135383814,71.0736 C0.594383814,77.9976 2.27638381,84.8266 5.09638381,91.1686 C7.60438381,96.8066 11.0213838,102.0916 15.4313838,106.4326 C16.7773838,107.7566 18.0633838,108.4356 19.5153838,109.5096 C21.6293838,111.0716 23.8303838,112.5166 26.1013838,113.8406 C27.4453838,114.6236 28.8153838,115.3636 30.2063838,116.0606 C34.1273838,119.6806 38.4913838,122.6046 43.1113838,124.7436 C55.0353838,130.2656 68.4723838,130.4186 81.2593838,126.6976 C84.4223838,125.7776 87.5483838,124.6156 90.6263838,123.2426 C90.9473838,123.0996 91.0523838,122.6426 91.0123838,122.1706 C93.9363838,121.2036 96.8183838,119.9826 99.6273838,118.5176 C110.918384,112.6256 121.294384,102.6786 127.884384,89.6226 C131.217384,83.0196 133.485384,75.6196 134.099384,68.0366 C134.760384,59.8836 133.517384,51.7966 131.124384,44.4666" id="Fill-5" fill="#0B0E1C" mask="url(#mask-2)"></path>
                </g>
                <path d="M74.5056838,84.8053 C76.3966838,85.5143 78.5996838,85.9603 81.1156838,86.1413 C83.6286838,86.3233 86.0526838,86.2003 88.3876838,85.7733 C90.7196838,85.3473 92.4846838,84.6873 93.6826838,83.7923 C96.0306838,82.2183 97.2116838,80.1103 97.2288713,77.4673 C97.2456838,74.8253 96.1066838,72.7173 93.8126838,71.1403 C92.5526838,70.2223 90.8336838,69.4683 88.6526838,68.8743 C86.4706838,68.2823 84.4166838,67.9123 82.4906838,67.7633 C79.4416838,67.5473 76.2206838,67.7903 72.8296838,68.4933 C72.0936838,73.5343 71.2876838,78.0703 70.4116838,82.1023 C71.2496838,83.1953 72.6136838,84.0973 74.5056838,84.8053" id="Fill-8" fill="#0B0E1C"></path>
            </g>
        </g>
    </g>
</svg>